<?xml version="1.0" encoding="utf-8"?>
<?xml-stylesheet type="text/xsl" href="rss1.xsl"?>
<rss version="2.0" xmlns:atom="http://www.w3.org/2005/Atom" xmlns:content="http://purl.org/rss/1.0/modules/content/" xmlns:dc="http://purl.org/dc/elements/1.1/" xmlns:media="http://search.yahoo.com/mrss/">
<channel>
 <title>Getty</title>
 <link>http://www.gettyimg.com/</link>
 <atom:link href="http://www.gettyimg.com/" rel="self" type="application/rss+xml" />

 
                <item>
                <title><![CDATA[【UPSCALED】Mélys - November (2024) [4K AI Upscale | HEVC 10-bit | PCM]]]></title>
                <link><![CDATA[https://sharemania.us/threads/m%C3%A9lys-november-2024-4k-ai-upscale-hevc-10-bit-pcm.242072/]]></link>
                <description><![CDATA[<article>
<blockquote class="messageText SelectQuoteContainer ugc baseHtml">
<b><img src="https://images2.imgbox.com/10/0c/fNlxg2QB_o.jpg" class="bbCodeImage LbImage" alt="[​IMG]" data-url="https://images2.imgbox.com/10/0c/fNlxg2QB_o.jpg" style=""> <br>
<br>
Genre: <span style="color: #0059b3">Indie, Folk</span><br>
Year: <span style="color: #0059b3">2024</span><br>
Video Source: <span style="color: #0059b3">YouTube, 1440p</span><br>
Audio Source: <span style="color: #0059b3">Qobuz (CD quality)</span></b><br>
<b>Lyrics: <span style="color: #0059b3">Apple Music, thanks SonMaxime</span></b><br>
<br>
"<b>November</b>" is a song by French Indie-Folk band / singer-songwriter Mélys, co-written by Safran Lecuivre and Mélys and released on March 21, 2024.<br>
- <i>"November is the desire to get out of the city, to breathe fresh air, the desire to be alone, in silence, facing the sea. Running away from gray walls and squeaky noises. Leave the crowds to find yourself face to face with the moon."</i><br>
<br>
From the Greek “bee” and the Welsh “sweet”, Mélys Bouvier's first name gave name to her music which she describes as Floral Folk. Originally from Pézenas, she started by learning the violin at the Béziers conservatory, then discovered the guitar to better reveal to us today her love of music, instilled since she was very young by her mother and grandfather. Nature is at the center of her work, the one where she grew up in France and that of dozens of other regions of the world that she explored during her early adult life. After three years of traveling in Latin America and the Caribbean by sail and hitchhiking, a guitar in one hand and a violin in the other, she finally returned to the family hamlet in the south of France, rediscovering the vineyards, the river, her beloved nature. It was there that she composed her first EP Agua. Navigating between English and Spanish, her soft, raspy voice time reminds us of those lost moments when our mind wanders and lets itself be carried away by melancholy. Mélys said that in her music we find a blues of Norah Jones, the colors of Lhasa, a vibrato of Alice Phoebe Lou and the melancholy of Debussy. - Main source: Press Kit, March 2024<br>
<br>
The music video for November, directed by Safran Lecuivre, was released together with the song.<br>
<br>
<b>Release Info</b><br>
The video track is upscaled from 1440p to 4K with Topaz Video AI, encoded to HEVC 10-bit.<br>
The PCM track is lossless (Qobuz 16-bit 44.1 kHz) and synced with Adobe Audition.<br>
The timed lyrics are created from scratch. Enable the subtitles to see the lyrics.<br>
<br>
<div class="ToggleTriggerAnchor bbCodeSpoilerContainer">
<button type="button" class="button bbCodeSpoilerButton ToggleTrigger Tooltip JsOnly" data-target="> .SpoilerTarget"><span>Spoiler: <span class="SpoilerTitle">Media Info</span></span></button>
<div class="SpoilerTarget bbCodeSpoilerText">
<div class="bbCodeBlock bbCodeCode">
<div class="type">Code:</div>
<pre>General
Unique ID                      : 97969868271542538970337300093461865294 (0x49B44F6F8151FCEF5986F6F370A8234E)
Complete name                  : Mélys - November.mkv
Format                         : Matroska
Format version                 : Version 4 / Version 2
File size                      : 718 MiB
Duration                       : 4 min 37 s
Overall bit rate               : 21.7 Mb/s
Frame rate                     : 25.000 FPS
Encoded date                   : 2024-04-12 22:21:57 UTC
Writing application            : mkvmerge v83.0 ('Circle Of Friends') 64-bit
Writing library                : libebml v1.4.5 + libmatroska v1.7.1

Video
ID                             : 1
Format                         : HEVC
Format/Info                    : High Efficiency Video Coding
Format profile                 : Main 10@L5@Main
Codec ID                       : V_MPEGH/ISO/HEVC
Duration                       : 4 min 37 s
Bit rate                       : 20.0 Mb/s
Width                          : 3 840 pixels
Height                         : 1 584 pixels
Display aspect ratio           : 2.40:1
Frame rate mode                : Constant
Frame rate                     : 25.000 FPS
Color space                    : YUV
Chroma subsampling             : 4:2:0
Bit depth                      : 10 bits
Bits/(Pixel*Frame)             : 0.132
Stream size                    : 661 MiB (92%)
Default                        : Yes
Forced                         : No
Color range                    : Limited
Color primaries                : BT.709
Transfer characteristics       : BT.709
Matrix coefficients            : BT.709

Audio #1
ID                             : 2
Format                         : PCM
Format settings                : Little / Signed
Codec ID                       : A_PCM/INT/LIT
Duration                       : 4 min 37 s
Bit rate mode                  : Constant
Bit rate                       : 1 411.2 kb/s
Channel(s)                     : 2 channels
Sampling rate                  : 44.1 kHz
Frame rate                     : 25.002 FPS (1764 SPF)
Bit depth                      : 16 bits
Delay relative to video        : -14 ms
Stream size                    : 46.6 MiB (6%)
Title                          : Lossless
Language                       : English
Default                        : Yes
Forced                         : No

Audio #2
ID                             : 3
Format                         : AAC LC
Format/Info                    : Advanced Audio Codec Low Complexity
Codec ID                       : A_AAC-2
Duration                       : 4 min 37 s
Bit rate                       : 307 kb/s
Channel(s)                     : 2 channels
Channel layout                 : L R
Sampling rate                  : 48.0 kHz
Frame rate                     : 46.875 FPS (1024 SPF)
Compression mode               : Lossy
Delay relative to video        : -14 ms
Stream size                    : 10.1 MiB (1%)
Title                          : Original
Language                       : English
Default                        : No
Forced                         : No

Text
ID                             : 4
Format                         : UTF-8
Codec ID                       : S_TEXT/UTF8
Codec ID/Info                  : UTF-8 Plain Text
Duration                       : 3 min 17 s
Bit rate                       : 23 b/s
Frame rate                     : 0.076 FPS
Count of elements              : 15
Stream size                    : 575 Bytes (0%)
Title                          : Lyrics
Language                       : English
Default                        : No
Forced                         : No
</pre>
</div></div>
</div><br>
<b>Note to the peeps @ RuTracker: Give credit if you post the work of someone else!</b><br>
- Hurby4 aka ADHDerby<br>
<br>
<div class="bbCodeBlock bbCodeVfcHH HiddenContent">
<div class="attribution type">Hidden Content:</div>
<blockquote>You must reply before you can see the hidden data contained here.</blockquote>
</div>
<div class="messageTextEndMarker">&nbsp;</div>
</blockquote>
</article>]]></description>
                <author><![CDATA[ADHDerby]]></author>
                </item>

                
                <item>
                <title><![CDATA[【Requests】[REQ AUD] - Eurovision Song Contest Malmö 2024 (hi-res)]]></title>
                <link><![CDATA[https://sharemania.us/threads/eurovision-song-contest-malm%C3%B6-2024-hi-res.242073/]]></link>
                <description><![CDATA[<article>
<blockquote class="messageText SelectQuoteContainer ugc baseHtml">
please this <a href="https://www.qobuz.com/se-en/album/eurovision-song-contest-malmo-2024-various-artists/u2d8mww5ygnmc" target="_blank" class="externalLink" rel="nofollow">https://www.qobuz.com/se-en/album/eurovision-song-contest-malmo-2024-various-artists/u2d8mww5ygnmc</a>
<div class="messageTextEndMarker">&nbsp;</div>
</blockquote>
</article>]]></description>
                <author><![CDATA[ukue]]></author>
                </item>

                </channel></rss>